HIERARCHY
ROOT Hips
{
	OFFSET 0.000000 0.000000 0.000000
	CHANNELS 6 Xposition Yposition Zposition Zrotation Yrotation Xrotation 
	JOINT LeftUpLeg_virtual
	{
		OFFSET 0.000000 0.000000 0.000000
		CHANNELS 3 Zrotation Yrotation Xrotation
		JOINT LeftUpLeg
		{
			OFFSET 10.205400 -3.823500 0.155100
			CHANNELS 3 Zrotation Yrotation Xrotation
			JOINT LeftLeg
			{
				OFFSET 0.708757 -12.982077 0.567790
				CHANNELS 3 Zrotation Yrotation Xrotation
				JOINT LeftFoot
				{
					OFFSET -0.708756 -10.717838 -2.184338
					CHANNELS 3 Zrotation Yrotation Xrotation
					JOINT LeftToeBase
					{
						OFFSET 0.108149 -7.191104 7.560241
						CHANNELS 3 Zrotation Yrotation Xrotation
						End Site
						{
							OFFSET 0.000000 0.000000 0.000000
						}
					}
				}
			}
		}
	}
	JOINT RightUpLeg_virtual
	{
		OFFSET 0.000000 0.000000 0.000000
		CHANNELS 3 Zrotation Yrotation Xrotation
		JOINT RightUpLeg
		{
			OFFSET -10.205400 -3.823500 0.005500
			CHANNELS 3 Zrotation Yrotation Xrotation
			JOINT RightLeg
			{
				OFFSET -0.708756 -12.982134 0.610632
				CHANNELS 3 Zrotation Yrotation Xrotation
				JOINT RightFoot
				{
					OFFSET 0.708754 -10.717769 -1.945823
					CHANNELS 3 Zrotation Yrotation Xrotation
					JOINT RightToeBase
					{
						OFFSET -0.108140 -7.191069 7.372968
						CHANNELS 3 Zrotation Yrotation Xrotation
						End Site
						{
							OFFSET 0.000000 0.000000 0.000000
						}
					}
				}
			}
		}
	}
	JOINT Spine_virtual
	{
		OFFSET 0.000000 0.000000 0.000000
		CHANNELS 3 Zrotation Yrotation Xrotation
		JOINT Spine
		{
			OFFSET 0.000000 6.876099 0.125700
			CHANNELS 3 Zrotation Yrotation Xrotation
			JOINT Spine1
			{
				OFFSET 0.000000 8.022060 0.146608
				CHANNELS 3 Zrotation Yrotation Xrotation
				JOINT Spine2
				{
					OFFSET 0.000000 9.168068 0.167552
					CHANNELS 3 Zrotation Yrotation Xrotation
					JOINT Neck_virtual
					{
						OFFSET 0.000000 0.000000 0.000000
						CHANNELS 3 Zrotation Yrotation Xrotation
						JOINT Neck
						{
							OFFSET 0.000000 10.314075 0.188496
							CHANNELS 3 Zrotation Yrotation Xrotation
							JOINT Head
							{
								OFFSET 0.000000 7.643700 -2.377400
								CHANNELS 3 Zrotation Yrotation Xrotation
								End Site
								{
									OFFSET 0.000000 0.000000 0.000000
								}
							}
						}
					}
					JOINT LeftShoulder_virtual
					{
						OFFSET 0.000000 0.000000 0.000000
						CHANNELS 3 Zrotation Yrotation Xrotation
						JOINT LeftShoulder
						{
							OFFSET 4.392200 8.824978 0.174984
							CHANNELS 3 Zrotation Yrotation Xrotation
							JOINT LeftArm
							{
								OFFSET 8.771219 -2.981674 -0.026999
								CHANNELS 3 Zrotation Yrotation Xrotation
								JOINT LeftForeArm
								{
									OFFSET 8.512804 0.000000 -0.000000
									CHANNELS 3 Zrotation Yrotation Xrotation
									JOINT LeftHand
									{
										OFFSET 18.484802 0.000000 -0.000000
										CHANNELS 3 Zrotation Yrotation Xrotation
										End Site
										{
											OFFSET 0.000000 0.000000 0.000000
										}
									}
								}
							}
						}
					}
					JOINT RightShoulder_virtual
					{
						OFFSET 0.000000 0.000000 0.000000
						CHANNELS 3 Zrotation Yrotation Xrotation
						JOINT RightShoulder
						{
							OFFSET -4.392200 8.824993 0.141379
							CHANNELS 3 Zrotation Yrotation Xrotation
							JOINT RightArm
							{
								OFFSET -8.771282 -2.981682 -0.094208
								CHANNELS 3 Zrotation Yrotation Xrotation
								JOINT RightForeArm
								{
									OFFSET -8.494598 0.000000 0.000000
									CHANNELS 3 Zrotation Yrotation Xrotation
									JOINT RightHand
									{
										OFFSET -18.483803 0.000000 0.000001
										CHANNELS 3 Zrotation Yrotation Xrotation
										End Site
										{
											OFFSET 0.000000 0.000000 0.000000
										}
									}
								}
							}
						}
					}
				}
			}
		}
	}
}
MOTION
Frames: 9
Frame Time: 0.033333
-5.543034 36.116821 -4.190217 179.874493 0.640765 179.979036 -0.595336 -5.933277 11.575367 -4.557290 -3.327649 -13.508742 12.021740 0.497942 18.377119 -4.896407 0.237743 9.007210 0.000000 0.000000 0.000000 4.351893 -4.560471 11.683477 -4.075089 5.243198 -15.648576 -4.671574 3.945179 23.075401 10.427897 1.025412 1.517715 0.000000 0.000000 0.000000 2.617100 -1.672465 -2.831255 -2.086812 2.219985 -8.292731 0.437188 -1.775683 8.072627 0.001580 0.012280 0.022749 -0.018053 0.424055 10.216965 -0.122062 -2.324527 17.297785 0.000000 0.000000 0.000000 1.320037 1.104771 7.391689 -18.080563 -14.972188 6.225033 -45.344236 2.099347 -0.015116 -1.045579 -47.620157 2.000211 0.000000 0.000000 0.000000 -2.329051 2.299459 6.985091 18.405190 4.046103 4.662075 30.448591 -22.926218 28.965145 -8.357281 67.674061 -10.537209 0.000000 0.000000 0.000000 
-5.568547 36.117039 -4.167695 179.870190 0.763205 -179.984214 -0.675658 -6.323610 11.559819 -4.482101 -3.229271 -13.412616 12.141596 -0.034869 18.972428 -4.946981 0.103108 9.493037 0.000000 0.000000 0.000000 4.360643 -4.510619 11.685851 -3.896004 4.962897 -15.518192 -4.620807 3.509774 23.293044 10.217959 0.827015 1.536625 0.000000 0.000000 0.000000 2.645902 -1.731383 -2.840278 -2.051850 2.128251 -8.268210 0.437364 -1.824806 8.084232 -0.015707 -0.029710 -0.031918 -0.016656 0.448450 10.275158 -0.148128 -2.382852 17.339424 0.000000 0.000000 0.000000 1.343842 1.179124 7.406747 -17.965612 -14.945706 6.204743 -45.279793 1.817437 -0.121397 -1.040074 -48.041160 2.029884 0.000000 0.000000 0.000000 -2.287434 2.437109 7.082786 18.365569 4.007717 4.757908 30.546464 -23.467888 29.149745 -8.635761 67.642970 -10.803846 0.000000 0.000000 0.000000 
-5.602943 36.117355 -4.145419 179.835889 1.118260 -179.975116 -0.697953 -6.409870 11.585929 -4.619291 -2.876840 -13.342099 12.105651 0.216946 18.911151 -4.925854 0.091520 9.500190 0.000000 0.000000 0.000000 4.310900 -4.557229 11.619587 -3.970220 5.162007 -15.571119 -4.747500 3.748074 23.240047 10.373106 0.861385 1.539840 0.000000 0.000000 0.000000 2.672153 -1.741578 -2.847871 -2.031146 2.109236 -8.179434 0.532460 -1.820384 8.141390 0.028527 -0.005731 0.019184 -0.093733 0.525043 10.267264 -0.193957 -2.403260 17.476907 0.000000 0.000000 0.000000 1.271859 1.215374 7.391359 -17.844144 -15.041110 6.137591 -45.241978 1.688272 -0.222195 -1.179218 -48.468330 2.227858 0.000000 0.000000 0.000000 -2.380583 2.448013 7.061125 18.254987 3.774853 4.665626 30.577862 -24.477221 29.470497 -8.357719 67.830110 -10.568003 0.000000 0.000000 0.000000 
-5.643689 36.112843 -4.123937 179.857719 1.551297 179.969119 -0.592489 -6.445252 11.631174 -4.807901 -2.446617 -13.286857 12.187584 0.558394 18.950261 -4.896770 -0.144585 9.485975 0.000000 0.000000 0.000000 4.360386 -4.604708 11.599651 -4.079001 5.506348 -15.653393 -4.781360 4.020795 23.192350 10.470477 0.782388 1.577859 0.000000 0.000000 0.000000 2.739822 -1.759409 -2.770644 -1.878926 2.153910 -8.061513 0.469899 -1.757341 8.190302 0.023294 0.040721 0.031588 -0.027177 0.446339 10.320930 -0.232916 -2.664527 17.701403 0.000000 0.000000 0.000000 1.342209 1.142823 7.466989 -17.672949 -15.173479 6.220473 -45.348491 1.914538 -0.319573 -1.126770 -48.749058 2.276035 0.000000 0.000000 0.000000 -2.315313 2.332995 7.115889 18.198211 3.452727 4.518448 30.638009 -25.732113 30.077575 -8.530743 68.176776 -10.830279 0.000000 0.000000 0.000000 
-5.691005 36.105503 -4.101576 179.895011 2.145707 -179.990497 -0.512143 -6.477617 11.651510 -5.030013 -2.021887 -13.281217 12.384660 1.300504 19.040983 -4.918348 -0.623388 9.471804 0.000000 0.000000 0.000000 4.393347 -4.555357 11.571765 -4.262300 5.898912 -15.853530 -4.836305 4.373853 23.156080 10.534218 0.638683 1.595136 0.000000 0.000000 0.000000 2.844954 -1.752293 -2.779036 -1.714471 2.154698 -7.948046 0.447632 -1.775052 8.263758 0.003710 0.026742 0.032659 -0.048545 0.449376 10.390430 -0.274482 -2.872383 18.026305 0.000000 0.000000 0.000000 1.330780 1.183938 7.531674 -17.466551 -15.165173 6.194247 -45.643477 2.644755 -0.452575 -1.267035 -48.690185 2.524772 0.000000 0.000000 0.000000 -2.335475 2.427327 7.194056 18.155369 3.205666 4.429445 30.826758 -27.185649 30.545883 -8.786321 68.590214 -11.197585 0.000000 0.000000 0.000000 
-5.744145 36.095825 -4.072843 179.886378 2.841207 -179.980867 -0.472757 -6.439303 11.684775 -5.232116 -1.424998 -13.316384 12.498226 1.884891 19.163662 -4.860288 -1.102182 9.429852 0.000000 0.000000 0.000000 4.362291 -4.437855 11.578275 -4.334502 6.402372 -16.093362 -5.036149 4.703039 23.142417 10.755823 0.543722 1.573567 0.000000 0.000000 0.000000 2.894897 -1.570666 -2.707504 -1.530563 2.121934 -7.850666 0.445627 -1.842345 8.334123 0.034688 0.148302 0.024570 -0.072145 0.419609 10.577338 -0.353320 -3.148039 18.460104 0.000000 0.000000 0.000000 1.313463 1.140115 7.696354 -17.281234 -15.198991 6.200806 -46.014875 3.758246 -0.548820 -1.238735 -48.069427 2.620230 0.000000 0.000000 0.000000 -2.383116 2.361512 7.328883 18.123270 2.821573 4.382620 31.097599 -28.525167 30.843010 -9.165547 68.973436 -11.711125 0.000000 0.000000 0.000000 
-5.812135 36.087753 -4.043151 179.870873 3.448381 179.961169 -0.477865 -6.449752 11.738536 -5.429060 -0.764144 -13.323170 12.546767 2.479187 19.365183 -4.749556 -1.511726 9.388696 0.000000 0.000000 0.000000 4.328494 -4.407620 11.655251 -4.536718 7.107406 -16.359473 -5.076247 5.228831 23.119169 10.841681 0.298111 1.561588 0.000000 0.000000 0.000000 2.976232 -1.631323 -2.621960 -1.363223 2.175705 -7.725530 0.500605 -1.843770 8.482265 0.056254 0.004365 0.032271 -0.157472 0.453159 10.645711 -0.430830 -3.452628 18.975550 0.000000 0.000000 0.000000 1.213988 1.185009 7.725091 -17.139738 -15.113399 6.292462 -46.532590 5.160786 -0.714272 -1.283805 -46.804609 2.745740 0.000000 0.000000 0.000000 -2.443908 2.455672 7.362478 18.080356 2.471166 4.250837 31.379470 -30.024733 31.037913 -9.736482 69.457205 -12.447955 0.000000 0.000000 0.000000 
-5.892083 36.083035 -4.015968 179.938533 4.197798 179.975307 -0.390244 -6.327242 11.760820 -5.615441 -0.245306 -13.329576 12.465123 3.039728 19.503088 -4.779994 -1.442045 9.373325 0.000000 0.000000 0.000000 4.362213 -4.214183 11.657366 -4.573203 7.514556 -16.621428 -5.534423 5.549460 23.022855 11.145357 0.447856 1.622086 0.000000 0.000000 0.000000 3.153757 -1.512402 -2.600051 -1.077318 2.201591 -7.606323 0.424919 -1.860119 8.618719 0.009511 0.036435 -0.042381 -0.137929 0.334408 10.813832 -0.517051 -3.803852 19.588518 0.000000 0.000000 0.000000 1.289690 1.162837 7.911202 -16.942709 -15.184393 6.329612 -47.099769 6.708071 -0.866520 -1.077884 -44.861946 2.614812 0.000000 0.000000 0.000000 -2.422503 2.349259 7.517200 17.977784 1.945375 4.047256 31.545287 -31.334319 30.866383 -9.272303 69.985602 -12.127674 0.000000 0.000000 0.000000 
-5.973099 36.081799 -3.992205 179.983449 4.956318 179.998079 -0.331990 -6.253207 11.784360 -5.835765 0.436828 -13.301443 12.408349 3.591655 19.627711 -4.620244 -1.760153 9.357034 0.000000 0.000000 0.000000 4.371738 -4.052987 11.656928 -4.676280 8.177832 -16.882616 -5.741107 6.277407 22.869789 11.248259 0.193152 1.636097 0.000000 0.000000 0.000000 3.305494 -1.362801 -2.548462 -0.838642 2.213915 -7.537224 0.404807 -1.908242 8.708451 -0.023182 0.060734 0.076328 -0.105228 0.212475 10.928197 -0.528697 -4.145373 20.299910 0.000000 0.000000 0.000000 1.296855 1.028880 7.941261 -16.715923 -15.089450 6.145449 -47.713540 8.520025 -1.201204 -1.089538 -42.535450 2.691578 0.000000 0.000000 0.000000 -2.409162 2.203665 7.504698 17.830813 1.333757 3.789365 31.706032 -32.555523 31.046874 -9.729610 70.597716 -12.706672 0.000000 0.000000 0.000000 
